<mxfile host="app.diagrams.net" modified="2024-03-28T10:46:53.002Z" agent="Mozilla/5.0 (Windows NT 10.0; Win64; x64) AppleWebKit/537.36 (KHTML, like Gecko) Chrome/123.0.0.0 Safari/537.36" etag="ylp42R9pWE2MBAuML26v" version="24.2.0" type="device">
  <diagram name="Trang-1" id="o7c8KmkM2kaeop-eU0rV">
    <mxGraphModel dx="1050" dy="530" grid="0" gridSize="10" guides="1" tooltips="1" connect="1" arrows="1" fold="1" page="1" pageScale="1" pageWidth="827" pageHeight="1169" math="0" shadow="0">
      <root>
        <mxCell id="0" />
        <mxCell id="1" parent="0" />
        <mxCell id="L0d4spbUUMXxsrKcqIjk-5" style="edgeStyle=orthogonalEdgeStyle;rounded=0;orthogonalLoop=1;jettySize=auto;html=1;exitX=1;exitY=0.3333333333333333;exitDx=0;exitDy=0;exitPerimeter=0;" parent="1" source="L0d4spbUUMXxsrKcqIjk-1" edge="1">
          <mxGeometry relative="1" as="geometry">
            <mxPoint x="240" y="170" as="targetPoint" />
          </mxGeometry>
        </mxCell>
        <mxCell id="L0d4spbUUMXxsrKcqIjk-14" style="edgeStyle=orthogonalEdgeStyle;rounded=0;orthogonalLoop=1;jettySize=auto;html=1;exitX=1;exitY=0.3333333333333333;exitDx=0;exitDy=0;exitPerimeter=0;entryX=0;entryY=0.5;entryDx=0;entryDy=0;" parent="1" source="L0d4spbUUMXxsrKcqIjk-1" target="L0d4spbUUMXxsrKcqIjk-4" edge="1">
          <mxGeometry relative="1" as="geometry" />
        </mxCell>
        <mxCell id="L0d4spbUUMXxsrKcqIjk-22" style="edgeStyle=orthogonalEdgeStyle;rounded=0;orthogonalLoop=1;jettySize=auto;html=1;entryX=0;entryY=0.5;entryDx=0;entryDy=0;" parent="1" edge="1">
          <mxGeometry relative="1" as="geometry">
            <mxPoint x="320" y="240" as="targetPoint" />
            <mxPoint x="170" y="160" as="sourcePoint" />
            <Array as="points">
              <mxPoint x="170" y="240" />
            </Array>
          </mxGeometry>
        </mxCell>
        <mxCell id="L0d4spbUUMXxsrKcqIjk-26" style="edgeStyle=orthogonalEdgeStyle;rounded=0;orthogonalLoop=1;jettySize=auto;html=1;exitX=1;exitY=0.3333333333333333;exitDx=0;exitDy=0;exitPerimeter=0;" parent="1" target="L0d4spbUUMXxsrKcqIjk-27" edge="1">
          <mxGeometry relative="1" as="geometry">
            <mxPoint x="300" y="320" as="targetPoint" />
            <mxPoint x="160" y="150" as="sourcePoint" />
            <Array as="points">
              <mxPoint x="170" y="150" />
              <mxPoint x="170" y="330" />
            </Array>
          </mxGeometry>
        </mxCell>
        <mxCell id="L0d4spbUUMXxsrKcqIjk-1" value="User" style="shape=umlActor;verticalLabelPosition=bottom;verticalAlign=top;html=1;outlineConnect=0;" parent="1" vertex="1">
          <mxGeometry x="130" y="130" width="30" height="60" as="geometry" />
        </mxCell>
        <mxCell id="L0d4spbUUMXxsrKcqIjk-4" value="Login" style="ellipse;whiteSpace=wrap;html=1;" parent="1" vertex="1">
          <mxGeometry x="240" y="120" width="70" height="20" as="geometry" />
        </mxCell>
        <mxCell id="L0d4spbUUMXxsrKcqIjk-6" value="Sign Up" style="ellipse;whiteSpace=wrap;html=1;" parent="1" vertex="1">
          <mxGeometry x="240" y="160" width="70" height="20" as="geometry" />
        </mxCell>
        <mxCell id="L0d4spbUUMXxsrKcqIjk-13" value="extends" style="html=1;verticalAlign=bottom;endArrow=open;dashed=1;endSize=8;curved=0;rounded=0;" parent="1" edge="1">
          <mxGeometry relative="1" as="geometry">
            <mxPoint x="540" y="130" as="sourcePoint" />
            <mxPoint x="480" y="130" as="targetPoint" />
          </mxGeometry>
        </mxCell>
        <mxCell id="L0d4spbUUMXxsrKcqIjk-19" style="edgeStyle=orthogonalEdgeStyle;rounded=0;orthogonalLoop=1;jettySize=auto;html=1;entryX=1;entryY=0.5;entryDx=0;entryDy=0;" parent="1" source="L0d4spbUUMXxsrKcqIjk-16" target="L0d4spbUUMXxsrKcqIjk-4" edge="1">
          <mxGeometry relative="1" as="geometry" />
        </mxCell>
        <mxCell id="L0d4spbUUMXxsrKcqIjk-16" value="Login by Password" style="ellipse;whiteSpace=wrap;html=1;" parent="1" vertex="1">
          <mxGeometry x="360" y="115" width="120" height="30" as="geometry" />
        </mxCell>
        <mxCell id="L0d4spbUUMXxsrKcqIjk-17" value="Forgot Password" style="ellipse;whiteSpace=wrap;html=1;" parent="1" vertex="1">
          <mxGeometry x="540" y="110" width="120" height="35" as="geometry" />
        </mxCell>
        <mxCell id="L0d4spbUUMXxsrKcqIjk-38" style="edgeStyle=orthogonalEdgeStyle;rounded=0;orthogonalLoop=1;jettySize=auto;html=1;entryX=0;entryY=0;entryDx=0;entryDy=0;" parent="1" source="L0d4spbUUMXxsrKcqIjk-24" target="L0d4spbUUMXxsrKcqIjk-27" edge="1">
          <mxGeometry relative="1" as="geometry">
            <Array as="points">
              <mxPoint x="360" y="285" />
              <mxPoint x="319" y="285" />
            </Array>
          </mxGeometry>
        </mxCell>
        <mxCell id="L0d4spbUUMXxsrKcqIjk-24" value="Create Task" style="ellipse;whiteSpace=wrap;html=1;" parent="1" vertex="1">
          <mxGeometry x="320" y="220" width="120" height="40" as="geometry" />
        </mxCell>
        <mxCell id="L0d4spbUUMXxsrKcqIjk-29" style="edgeStyle=orthogonalEdgeStyle;rounded=0;orthogonalLoop=1;jettySize=auto;html=1;" parent="1" source="L0d4spbUUMXxsrKcqIjk-27" target="L0d4spbUUMXxsrKcqIjk-30" edge="1">
          <mxGeometry relative="1" as="geometry">
            <mxPoint x="530" y="280" as="targetPoint" />
            <Array as="points">
              <mxPoint x="365" y="270" />
            </Array>
          </mxGeometry>
        </mxCell>
        <mxCell id="L0d4spbUUMXxsrKcqIjk-31" style="edgeStyle=orthogonalEdgeStyle;rounded=0;orthogonalLoop=1;jettySize=auto;html=1;" parent="1" source="L0d4spbUUMXxsrKcqIjk-27" target="L0d4spbUUMXxsrKcqIjk-32" edge="1">
          <mxGeometry relative="1" as="geometry">
            <mxPoint x="510" y="330" as="targetPoint" />
          </mxGeometry>
        </mxCell>
        <mxCell id="L0d4spbUUMXxsrKcqIjk-33" style="edgeStyle=orthogonalEdgeStyle;rounded=0;orthogonalLoop=1;jettySize=auto;html=1;" parent="1" source="L0d4spbUUMXxsrKcqIjk-27" target="L0d4spbUUMXxsrKcqIjk-34" edge="1">
          <mxGeometry relative="1" as="geometry">
            <mxPoint x="510" y="400" as="targetPoint" />
            <Array as="points">
              <mxPoint x="365" y="370" />
              <mxPoint x="515" y="370" />
            </Array>
          </mxGeometry>
        </mxCell>
        <mxCell id="L0d4spbUUMXxsrKcqIjk-27" value="View Task List" style="ellipse;whiteSpace=wrap;html=1;" parent="1" vertex="1">
          <mxGeometry x="300" y="310" width="130" height="40" as="geometry" />
        </mxCell>
        <mxCell id="L0d4spbUUMXxsrKcqIjk-30" value="Edit Task" style="ellipse;whiteSpace=wrap;html=1;" parent="1" vertex="1">
          <mxGeometry x="500" y="240" width="120" height="40" as="geometry" />
        </mxCell>
        <mxCell id="L0d4spbUUMXxsrKcqIjk-32" value="Mask Task As Complete" style="ellipse;whiteSpace=wrap;html=1;" parent="1" vertex="1">
          <mxGeometry x="510" y="290" width="140" height="40" as="geometry" />
        </mxCell>
        <mxCell id="L0d4spbUUMXxsrKcqIjk-34" value="Delete Task" style="ellipse;whiteSpace=wrap;html=1;" parent="1" vertex="1">
          <mxGeometry x="525" y="350" width="110" height="40" as="geometry" />
        </mxCell>
      </root>
    </mxGraphModel>
  </diagram>
</mxfile>
